<svg xmlns="http://www.w3.org/2000/svg" xmlns:xlink="http://www.w3.org/1999/xlink" version="1.1" width="256" height="256" viewBox="0 0 256 256" xml:space="preserve">

<defs>
</defs>
<g style="stroke: none; stroke-width: 0; stroke-dasharray: none; stroke-linecap: butt; stroke-linejoin: miter; stroke-miterlimit: 10; fill: none; fill-rule: nonzero; opacity: 1;" transform="translate(1.4065934065934016 1.4065934065934016) scale(2.81 2.81)" >
	<path d="M 85.338 76.809 c -12.725 3.139 -25.451 3.139 -38.176 0 l 0 -4.069 c 0 -1.92 1.557 -3.477 3.477 -3.477 h 31.222 c 1.92 0 3.477 1.557 3.477 3.477 V 76.809 z" style="stroke: none; stroke-width: 1; stroke-dasharray: none; stroke-linecap: butt; stroke-linejoin: miter; stroke-miterlimit: 10; fill: rgb(225,122,23); fill-rule: nonzero; opacity: 1;" transform=" matrix(1 0 0 1 0 0) " stroke-linecap="round" />
	<path d="M 88.363 84.355 H 44.127 c -0.904 0 -1.637 -0.733 -1.637 -1.637 v -4.272 c 0 -0.904 0.733 -1.637 1.637 -1.637 h 44.236 c 0.904 0 1.637 0.733 1.637 1.637 v 4.272 C 90 83.622 89.267 84.355 88.363 84.355 z" style="stroke: none; stroke-width: 1; stroke-dasharray: none; stroke-linecap: butt; stroke-linejoin: miter; stroke-miterlimit: 10; fill: rgb(90,81,107); fill-rule: nonzero; opacity: 1;" transform=" matrix(1 0 0 1 0 0) " stroke-linecap="round" />
	<path d="M 10.144 56.221 l 33.032 -22.708 c 1.897 -1.304 2.378 -3.899 1.074 -5.796 l -3.939 -5.73 c 3.363 -4.263 7.906 -7.661 14.209 -9.768 l 16.788 24.421 c -3.045 5.624 -7.812 8.837 -14.209 9.768 l -3.939 -5.73 c -1.304 -1.897 -3.899 -2.378 -5.796 -1.074 L 14.331 62.313 l 0.008 0 c 0.167 2.806 -1.32 5.631 -4.181 6.965 c -2.648 1.234 -5.881 0.689 -7.965 -1.359 c -3.338 -3.28 -2.736 -8.573 0.917 -11.085 c 2.15 -1.478 4.821 -1.624 7.036 -0.62" style="stroke: none; stroke-width: 1; stroke-dasharray: none; stroke-linecap: butt; stroke-linejoin: miter; stroke-miterlimit: 10; fill: rgb(225,122,23); fill-rule: nonzero; opacity: 1;" transform=" matrix(1 0 0 1 0 0) " stroke-linecap="round" />
	<path d="M 54.366 12.325 l -13.903 9.557 c -1.638 1.126 -3.878 0.711 -5.004 -0.927 l -0.08 -0.116 c -1.126 -1.638 -0.711 -3.878 0.927 -5.004 l 13.903 -9.557 c 1.638 -1.126 3.878 -0.711 5.004 0.927 l 0.08 0.116 C 56.418 8.959 56.003 11.199 54.366 12.325 z" style="stroke: none; stroke-width: 1; stroke-dasharray: none; stroke-linecap: butt; stroke-linejoin: miter; stroke-miterlimit: 10; fill: rgb(90,81,107); fill-rule: nonzero; opacity: 1;" transform=" matrix(1 0 0 1 0 0) " stroke-linecap="round" />
	<path d="M 75.311 42.793 L 61.408 52.35 c -1.638 1.126 -3.878 0.711 -5.004 -0.927 l -0.08 -0.116 c -1.126 -1.638 -0.711 -3.878 0.927 -5.004 l 13.903 -9.557 c 1.638 -1.126 3.878 -0.711 5.004 0.927 l 0.08 0.116 C 77.363 39.427 76.948 41.667 75.311 42.793 z" style="stroke: none; stroke-width: 1; stroke-dasharray: none; stroke-linecap: butt; stroke-linejoin: miter; stroke-miterlimit: 10; fill: rgb(90,81,107); fill-rule: nonzero; opacity: 1;" transform=" matrix(1 0 0 1 0 0) " stroke-linecap="round" />
</g>
</svg>