<svg width="45" height="45" viewBox="0 0 45 45" fill="none" xmlns="http://www.w3.org/2000/svg">
<circle cx="22.5" cy="22.5" r="22.5" fill="white"/>
<path d="M22.5 18.9126C21.7905 18.9126 21.0969 19.123 20.5069 19.5172C19.9169 19.9114 19.4571 20.4717 19.1856 21.1272C18.9141 21.7827 18.843 22.504 18.9814 23.1999C19.1199 23.8959 19.4615 24.5351 19.9633 25.0368C20.465 25.5385 21.1042 25.8802 21.8001 26.0186C22.496 26.1571 23.2173 26.086 23.8729 25.8145C24.5284 25.5429 25.0887 25.0831 25.4829 24.4932C25.8771 23.9032 26.0875 23.2096 26.0875 22.5001C26.0887 22.0286 25.9966 21.5616 25.8168 21.1258C25.6369 20.69 25.3727 20.2941 25.0393 19.9607C24.706 19.6274 24.31 19.3632 23.8742 19.1833C23.4385 19.0034 22.9714 18.9114 22.5 18.9126ZM22.5 24.8363C22.0379 24.8363 21.5862 24.6993 21.202 24.4426C20.8179 24.1859 20.5184 23.821 20.3416 23.3941C20.1648 22.9672 20.1185 22.4975 20.2086 22.0443C20.2988 21.5911 20.5213 21.1748 20.848 20.8481C21.1748 20.5214 21.591 20.2988 22.0442 20.2087C22.4974 20.1186 22.9671 20.1648 23.394 20.3416C23.8209 20.5185 24.1858 20.8179 24.4425 21.2021C24.6992 21.5863 24.8362 22.038 24.8362 22.5001C24.8362 23.1197 24.5901 23.7139 24.152 24.152C23.7138 24.5902 23.1196 24.8363 22.5 24.8363ZM27.0762 18.7638C27.0762 18.9369 27.0249 19.106 26.9288 19.2499C26.8326 19.3938 26.696 19.506 26.5361 19.5722C26.3762 19.6384 26.2003 19.6558 26.0305 19.622C25.8608 19.5882 25.7049 19.5049 25.5825 19.3825C25.4602 19.2602 25.3768 19.1042 25.3431 18.9345C25.3093 18.7648 25.3266 18.5888 25.3929 18.429C25.4591 18.2691 25.5712 18.1324 25.7151 18.0363C25.859 17.9401 26.0282 17.8888 26.2012 17.8888C26.4333 17.8888 26.6559 17.981 26.82 18.1451C26.9841 18.3092 27.0762 18.5317 27.0762 18.7638ZM29.4475 19.6388C29.4739 18.5509 29.068 17.4968 28.3187 16.7076C27.9301 16.3318 27.4711 16.0364 26.9681 15.8382C26.4651 15.64 25.928 15.543 25.3875 15.5526C24.25 15.5001 20.75 15.5001 19.6125 15.5526C18.5251 15.529 17.472 15.9345 16.6812 16.6813C15.932 17.4706 15.5261 18.5246 15.5525 19.6126C15.5 20.7501 15.5 24.2501 15.5525 25.3876C15.5261 26.4755 15.932 27.5296 16.6812 28.3188C17.472 29.0656 18.5251 29.4711 19.6125 29.4476C20.7675 29.5176 24.2325 29.5176 25.3875 29.4476C26.4754 29.474 27.5295 29.0681 28.3187 28.3188C29.068 27.5296 29.4739 26.4755 29.4475 25.3876C29.5 24.2501 29.5 20.7501 29.4475 19.6126V19.6388ZM27.96 26.6388C27.8412 26.9398 27.6618 27.2131 27.4331 27.4419C27.2043 27.6707 26.9309 27.85 26.63 27.9688C25.2716 28.2434 23.883 28.3376 22.5 28.2488C21.1199 28.3368 19.7342 28.2427 18.3787 27.9688C18.0778 27.85 17.8045 27.6707 17.5757 27.4419C17.3469 27.2131 17.1675 26.9398 17.0487 26.6388C16.6812 25.7113 16.76 23.5238 16.76 22.5088C16.76 21.4938 16.6812 19.2976 17.0487 18.3788C17.1642 18.0749 17.3423 17.7987 17.5714 17.568C17.8005 17.3374 18.0756 17.1575 18.3787 17.0401C19.7342 16.7662 21.1199 16.6721 22.5 16.7601C23.883 16.6713 25.2716 16.7654 26.63 17.0401C26.9309 17.1589 27.2043 17.3382 27.4331 17.567C27.6618 17.7958 27.8412 18.0691 27.96 18.3701C28.3275 19.2976 28.24 21.4851 28.24 22.5001C28.24 23.5151 28.3275 25.7113 27.96 26.6301V26.6388Z" fill="#969696"/>
</svg>
